{"asset":{"generator":"3D Builder","version":"2.0"},"scene":0,"scenes":[{"nodes":[0]}],"nodes":[{"children":[1,2,3,4,5,6,7,8,9,10,11,12,13,14,15,16,17,18,19,20,21]},{"mesh":0,"matrix":[-0.26086950302124023,7.3440705818939023E-6,5.6508861234760843E-6,0,9.2924092314206064E-6,-5.7304345091324649E-7,0.42857110500335693,0,1.2993959899176843E-5,0.46153625845909119,6.1756350078212563E-7,0,8.478164659209142E-8,0.031924236565828323,0.0007142936228774488,1]},{"mesh":1,"matrix":[-0.26086950302124023,7.3440705818939023E-6,5.6508861234760843E-6,0,9.2924092314206064E-6,-5.7304345091324649E-7,0.42857110500335693,0,1.2993959899176843E-5,0.46153625845909119,6.1756350078212563E-7,0,8.478164659209142E-8,0.031924236565828323,0.0007142936228774488,1]},{"mesh":2,"matrix":[-0.26086950302124023,7.3440705818939023E-6,5.6508861234760843E-6,0,9.2924092314206064E-6,-5.7304345091324649E-7,0.42857110500335693,0,1.2993959899176843E-5,0.46153625845909119,6.1756350078212563E-7,0,8.478164659209142E-8,0.031924236565828323,0.0007142936228774488,1]},{"mesh":3,"matrix":[-0.26086950302124023,7.3440705818939023E-6,5.6508861234760843E-6,0,9.2924092314206064E-6,-5.7304345091324649E-7,0.42857110500335693,0,1.2993959899176843E-5,0.46153625845909119,6.1756350078212563E-7,0,8.478164659209142E-8,0.031924236565828323,0.0007142936228774488,1]},{"mesh":4,"matrix":[-0.26086950302124023,7.3440705818939023E-6,5.6508861234760843E-6,0,9.2924092314206064E-6,-5.7304345091324649E-7,0.42857110500335693,0,1.2993959899176843E-5,0.46153625845909119,6.1756350078212563E-7,0,8.478164659209142E-8,0.031924236565828323,0.0007142936228774488,1]},{"mesh":5,"matrix":[-0.26086950302124023,7.3440705818939023E-6,5.6508861234760843E-6,0,9.2924092314206064E-6,-5.7304345091324649E-7,0.42857110500335693,0,1.2993959899176843E-5,0.46153625845909119,6.1756350078212563E-7,0,8.478164659209142E-8,0.031924236565828323,0.0007142936228774488,1]},{"mesh":6,"matrix":[-0.26086950302124023,7.3440705818939023E-6,5.6508861234760843E-6,0,9.2924092314206064E-6,-5.7304345091324649E-7,0.42857110500335693,0,1.2993959899176843E-5,0.46153625845909119,6.1756350078212563E-7,0,8.478164659209142E-8,0.031924236565828323,0.0007142936228774488,1]},{"mesh":7,"matrix":[-0.26086950302124023,7.3440705818939023E-6,5.6508861234760843E-6,0,9.2924092314206064E-6,-5.7304345091324649E-7,0.42857110500335693,0,1.2993959899176843E-5,0.46153625845909119,6.1756350078212563E-7,0,8.478164659209142E-8,0.031924236565828323,0.0007142936228774488,1]},{"mesh":8,"matrix":[-0.26086950302124023,7.3440705818939023E-6,5.6508861234760843E-6,0,9.2924092314206064E-6,-5.7304345091324649E-7,0.42857110500335693,0,1.2993959899176843E-5,0.46153625845909119,6.1756350078212563E-7,0,8.478164659209142E-8,0.031924236565828323,0.0007142936228774488,1]},{"mesh":9,"matrix":[-0.26086950302124023,7.3440705818939023E-6,5.6508861234760843E-6,0,9.2924092314206064E-6,-5.7304345091324649E-7,0.42857110500335693,0,1.2993959899176843E-5,0.46153625845909119,6.1756350078212563E-7,0,8.478164659209142E-8,0.031924236565828323,0.0007142936228774488,1]},{"mesh":10,"matrix":[-0.26086950302124023,7.3440705818939023E-6,5.6508861234760843E-6,0,9.2924092314206064E-6,-5.7304345091324649E-7,0.42857110500335693,0,1.2993959899176843E-5,0.46153625845909119,6.1756350078212563E-7,0,8.478164659209142E-8,0.031924236565828323,0.0007142936228774488,1]},{"mesh":11,"matrix":[-0.26086950302124023,7.3440705818939023E-6,5.6508861234760843E-6,0,9.2924092314206064E-6,-5.7304345091324649E-7,0.42857110500335693,0,1.2993959899176843E-5,0.46153625845909119,6.1756350078212563E-7,0,8.478164659209142E-8,0.031924236565828323,0.0007142936228774488,1]},{"mesh":12,"matrix":[-0.26086950302124023,7.3440705818939023E-6,5.6508861234760843E-6,0,9.2924092314206064E-6,-5.7304345091324649E-7,0.42857110500335693,0,1.2993959899176843E-5,0.46153625845909119,6.1756350078212563E-7,0,8.478164659209142E-8,0.031924236565828323,0.0007142936228774488,1]},{"mesh":13,"matrix":[-0.26086950302124023,7.3440705818939023E-6,5.6508861234760843E-6,0,9.2924092314206064E-6,-5.7304345091324649E-7,0.42857110500335693,0,1.2993959899176843E-5,0.46153625845909119,6.1756350078212563E-7,0,8.478164659209142E-8,0.031924236565828323,0.0007142936228774488,1]},{"mesh":14,"matrix":[-0.26086950302124023,7.3440705818939023E-6,5.6508861234760843E-6,0,9.2924092314206064E-6,-5.7304345091324649E-7,0.42857110500335693,0,1.2993959899176843E-5,0.46153625845909119,6.1756350078212563E-7,0,8.478164659209142E-8,0.031924236565828323,0.0007142936228774488,1]},{"mesh":15,"matrix":[-0.26086950302124023,7.3440705818939023E-6,5.6508861234760843E-6,0,9.2924092314206064E-6,-5.7304345091324649E-7,0.42857110500335693,0,1.2993959899176843E-5,0.46153625845909119,6.1756350078212563E-7,0,8.478164659209142E-8,0.031924236565828323,0.0007142936228774488,1]},{"mesh":16,"matrix":[-0.26086950302124023,7.3440705818939023E-6,5.6508861234760843E-6,0,9.2924092314206064E-6,-5.7304345091324649E-7,0.42857110500335693,0,1.2993959899176843E-5,0.46153625845909119,6.1756350078212563E-7,0,8.478164659209142E-8,0.031924236565828323,0.0007142936228774488,1]},{"mesh":17,"matrix":[-0.26086950302124023,7.3440705818939023E-6,5.6508861234760843E-6,0,9.2924092314206064E-6,-5.7304345091324649E-7,0.42857110500335693,0,1.2993959899176843E-5,0.46153625845909119,6.1756350078212563E-7,0,8.478164659209142E-8,0.031924236565828323,0.0007142936228774488,1]},{"mesh":18,"matrix":[-0.26086950302124023,7.3440705818939023E-6,5.6508861234760843E-6,0,9.2924092314206064E-6,-5.7304345091324649E-7,0.42857110500335693,0,1.2993959899176843E-5,0.46153625845909119,6.1756350078212563E-7,0,8.478164659209142E-8,0.031924236565828323,0.0007142936228774488,1]},{"mesh":19,"matrix":[-0.26086950302124023,7.3440705818939023E-6,5.6508861234760843E-6,0,9.2924092314206064E-6,-5.7304345091324649E-7,0.42857110500335693,0,1.2993959899176843E-5,0.46153625845909119,6.1756350078212563E-7,0,8.478164659209142E-8,0.031924236565828323,0.0007142936228774488,1]},{"mesh":20,"matrix":[-0.26086950302124023,7.3440705818939023E-6,5.6508861234760843E-6,0,9.2924092314206064E-6,-5.7304345091324649E-7,0.42857110500335693,0,1.2993959899176843E-5,0.46153625845909119,6.1756350078212563E-7,0,8.478164659209142E-8,0.031924236565828323,0.0007142936228774488,1]}],"meshes":[{"primitives":[{"attributes":{"POSITION":0},"mode":4,"indices":2,"material":0},{"attributes":{"POSITION":1},"mode":4,"indices":3,"material":1}]},{"primitives":[{"attributes":{"POSITION":4},"mode":4,"indices":5,"material":0}]},{"primitives":[{"attributes":{"POSITION":6},"mode":4,"indices":7,"material":0}]},{"primitives":[{"attributes":{"POSITION":8},"mode":4,"indices":9,"material":0}]},{"primitives":[{"attributes":{"POSITION":10},"mode":4,"indices":11,"material":0}]},{"primitives":[{"attributes":{"POSITION":12},"mode":4,"indices":13,"material":0}]},{"primitives":[{"attributes":{"POSITION":14},"mode":4,"indices":15,"material":0}]},{"primitives":[{"attributes":{"POSITION":16},"mode":4,"indices":18,"material":0},{"attributes":{"POSITION":17},"mode":4,"indices":19,"material":2}]},{"primitives":[{"attributes":{"POSITION":20},"mode":4,"indices":22,"material":0},{"attributes":{"POSITION":21},"mode":4,"indices":23,"material":2}]},{"primitives":[{"attributes":{"POSITION":24},"mode":4,"indices":26,"material":0},{"attributes":{"POSITION":25},"mode":4,"indices":27,"material":2}]},{"primitives":[{"attributes":{"POSITION":28},"mode":4,"indices":30,"material":0},{"attributes":{"POSITION":29},"mode":4,"indices":31,"material":2}]},{"primitives":[{"attributes":{"POSITION":32},"mode":4,"indices":33,"material":1}]},{"primitives":[{"attributes":{"POSITION":34},"mode":4,"indices":36,"material":1},{"attributes":{"POSITION":35},"mode":4,"indices":37,"material":2}]},{"primitives":[{"attributes":{"POSITION":38},"mode":4,"indices":39,"material":1}]},{"primitives":[{"attributes":{"POSITION":40},"mode":4,"indices":41,"material":1}]},{"primitives":[{"attributes":{"POSITION":42},"mode":4,"indices":43,"material":1}]},{"primitives":[{"attributes":{"POSITION":44},"mode":4,"indices":45,"material":1}]},{"primitives":[{"attributes":{"POSITION":46},"mode":4,"indices":47,"material":1}]},{"primitives":[{"attributes":{"POSITION":48},"mode":4,"indices":49,"material":1}]},{"primitives":[{"attributes":{"POSITION":50},"mode":4,"indices":51,"material":1}]},{"primitives":[{"attributes":{"POSITION":52},"mode":4,"indices":53,"material":1}]}],"materials":[{"name":"mat21","pbrMetallicRoughness":{"baseColorFactor":[1,1,1,1],"metallicFactor":0,"roughnessFactor":1},"alphaMode":"OPAQUE"},{"name":"mat23","pbrMetallicRoughness":{"baseColorFactor":[0.010000000707805157,0.010000000707805157,0.010000000707805157,1],"metallicFactor":0,"roughnessFactor":1},"alphaMode":"OPAQUE"},{"name":"mat5","pbrMetallicRoughness":{"baseColorFactor":[0,0.3399999737739563,0.79000008106231689,1],"metallicFactor":0,"roughnessFactor":1},"alphaMode":"OPAQUE"}],"accessors":[{"bufferView":0,"byteOffset":0,"count":14,"componentType":5126,"type":"VEC3","min":[-0.079999856650829315,-0.061666704714298248,-0.0691680908203125],"max":[0.080000221729278564,0.068333432078361511,0.03083205409348011]},{"bufferView":0,"byteOffset":168,"count":6,"componentType":5126,"type":"VEC3","min":[-0.039999838918447495,-0.061666626483201981,-0.0691680908203125],"max":[0.040000200271606445,0.068333402276039124,-0.0691680759191513]},{"bufferView":1,"byteOffset":0,"count":60,"componentType":5125,"type":"SCALAR"},{"bufferView":1,"byteOffset":240,"count":12,"componentType":5125,"type":"SCALAR"},{"bufferView":2,"byteOffset":0,"count":24,"componentType":5126,"type":"VEC3","min":[0.039999961853027344,0.0083332657814025879,-0.0691678375005722],"max":[0.080000221729278564,0.13833338022232056,0.060832258313894272]},{"bufferView":3,"byteOffset":0,"count":132,"componentType":5125,"type":"SCALAR"},{"bufferView":4,"byteOffset":0,"count":8,"componentType":5126,"type":"VEC3","min":[-0.079999983310699463,-0.041666720062494278,-0.0091683901846408844],"max":[-0.03999989852309227,0.038333367556333542,0.0408318005502224]},{"bufferView":5,"byteOffset":0,"count":36,"componentType":5125,"type":"SCALAR"},{"bufferView":6,"byteOffset":0,"count":24,"componentType":5126,"type":"VEC3","min":[-0.079999856650829315,0.0083333253860473633,-0.0691678375005722],"max":[-0.039999600499868393,0.13833338022232056,0.060832258313894272]},{"bufferView":7,"byteOffset":0,"count":132,"componentType":5125,"type":"SCALAR"},{"bufferView":8,"byteOffset":0,"count":8,"componentType":5126,"type":"VEC3","min":[0.040000021457672119,-0.041666809469461441,-0.0091683901846408844],"max":[0.080000102519989014,0.038333266973495483,0.0408318005502224]},{"bufferView":9,"byteOffset":0,"count":36,"componentType":5125,"type":"SCALAR"},{"bufferView":10,"byteOffset":0,"count":24,"componentType":5126,"type":"VEC3","min":[0.039999719709157944,-0.13166669011116028,-0.0691683292388916],"max":[0.079999983310699463,-0.0016666193259879947,0.060831774026155472]},{"bufferView":11,"byteOffset":0,"count":132,"componentType":5125,"type":"SCALAR"},{"bufferView":12,"byteOffset":0,"count":24,"componentType":5126,"type":"VEC3","min":[-0.079999856650829315,-0.13166658580303192,-0.0691683292388916],"max":[-0.039999600499868393,-0.0016665302682667971,0.060831774026155472]},{"bufferView":13,"byteOffset":0,"count":132,"componentType":5125,"type":"SCALAR"},{"bufferView":14,"byteOffset":0,"count":144,"componentType":5126,"type":"VEC3","min":[0.10000009834766388,0.0083332806825637817,-0.020367614924907684],"max":[0.2300000935792923,0.13833329081535339,0.012132653035223484]},{"bufferView":14,"byteOffset":1728,"count":24,"componentType":5126,"type":"VEC3","min":[0.13032309710979462,0.038656186312437057,-0.012242553755640984],"max":[0.19967719912528992,0.10801038146018982,-0.00411747582256794]},{"bufferView":15,"byteOffset":0,"count":792,"componentType":5125,"type":"SCALAR"},{"bufferView":15,"byteOffset":3168,"count":72,"componentType":5125,"type":"SCALAR"},{"bufferView":16,"byteOffset":0,"count":144,"componentType":5126,"type":"VEC3","min":[0.10000009834766388,-0.14166668057441711,-0.019167901948094368],"max":[0.2300000935792923,-0.011666699312627316,0.01333235390484333]},{"bufferView":16,"byteOffset":1728,"count":24,"componentType":5126,"type":"VEC3","min":[0.13032309710979462,-0.11134378612041473,-0.011042841710150242],"max":[0.19967719912528992,-0.041989605873823166,-0.0029177721589803696]},{"bufferView":17,"byteOffset":0,"count":792,"componentType":5125,"type":"SCALAR"},{"bufferView":17,"byteOffset":3168,"count":72,"componentType":5125,"type":"SCALAR"},{"bufferView":18,"byteOffset":0,"count":144,"componentType":5126,"type":"VEC3","min":[-0.22999979555606842,0.008333294652402401,-0.019168375059962273],"max":[-0.099999852478504181,0.13833329081535339,0.013331903144717216]},{"bufferView":18,"byteOffset":1728,"count":24,"componentType":5126,"type":"VEC3","min":[-0.19967690110206604,0.038656216114759445,-0.011043304577469826],"max":[-0.13032279908657074,0.10801038146018982,-0.0029182301368564367]},{"bufferView":19,"byteOffset":0,"count":792,"componentType":5125,"type":"SCALAR"},{"bufferView":19,"byteOffset":3168,"count":72,"componentType":5125,"type":"SCALAR"},{"bufferView":20,"byteOffset":0,"count":144,"componentType":5126,"type":"VEC3","min":[-0.22999979555606842,-0.14166668057441711,-0.01796865276992321],"max":[-0.099999852478504181,-0.011666669510304928,0.014531593769788742]},{"bufferView":20,"byteOffset":1728,"count":24,"componentType":5126,"type":"VEC3","min":[-0.19967690110206604,-0.11134378612041473,-0.0098435999825596809],"max":[-0.13032279908657074,-0.041989576071500778,-0.0017185260076075792]},{"bufferView":21,"byteOffset":0,"count":792,"componentType":5125,"type":"SCALAR"},{"bufferView":21,"byteOffset":3168,"count":72,"componentType":5125,"type":"SCALAR"},{"bufferView":22,"byteOffset":0,"count":24,"componentType":5126,"type":"VEC3","min":[-0.040000021457672119,-0.13166669011116028,-0.0691683292388916],"max":[0.04000014066696167,-0.0016666193259879947,0.060831774026155472]},{"bufferView":23,"byteOffset":0,"count":132,"componentType":5125,"type":"SCALAR"},{"bufferView":24,"byteOffset":0,"count":37,"componentType":5126,"type":"VEC3","min":[-0.039999779313802719,0.0083332210779190063,-0.0691680759191513],"max":[0.040000379085540771,0.13833338022232056,0.06083201989531517]},{"bufferView":24,"byteOffset":444,"count":16,"componentType":5126,"type":"VEC3","min":[-0.039999719709157944,0.10083327442407608,-0.00416801730170846],"max":[0.040000379085540771,0.13833338022232056,0.047123432159423828]},{"bufferView":25,"byteOffset":0,"count":174,"componentType":5125,"type":"SCALAR"},{"bufferView":25,"byteOffset":696,"count":36,"componentType":5125,"type":"SCALAR"},{"bufferView":26,"byteOffset":0,"count":8,"componentType":5126,"type":"VEC3","min":[0.080000102519989014,0.04833323135972023,-0.020367372781038284],"max":[0.12000010162591934,0.088333345949649811,0.0096328351646661758]},{"bufferView":27,"byteOffset":0,"count":36,"componentType":5125,"type":"SCALAR"},{"bufferView":28,"byteOffset":0,"count":144,"componentType":5126,"type":"VEC3","min":[0.11772739887237549,0.026060504838824272,-0.0028042744379490614],"max":[0.21227289736270905,0.12060588598251343,0.020832071080803871]},{"bufferView":29,"byteOffset":0,"count":864,"componentType":5125,"type":"SCALAR"},{"bufferView":30,"byteOffset":0,"count":8,"componentType":5126,"type":"VEC3","min":[0.080000162124633789,-0.091666683554649353,-0.019167669117450714],"max":[0.12000010162591934,-0.051666650921106339,0.010832542553544044]},{"bufferView":31,"byteOffset":0,"count":36,"componentType":5125,"type":"SCALAR"},{"bufferView":32,"byteOffset":0,"count":144,"componentType":5126,"type":"VEC3","min":[0.11772739887237549,-0.1239393875002861,-0.0016045701922848821],"max":[0.21227289736270905,-0.029394017532467842,0.022031772881746292]},{"bufferView":33,"byteOffset":0,"count":864,"componentType":5125,"type":"SCALAR"},{"bufferView":34,"byteOffset":0,"count":8,"componentType":5126,"type":"VEC3","min":[-0.11999980360269547,0.048333261162042618,-0.019168132916092873],"max":[-0.07999979704618454,0.088333345949649811,0.010832079686224461]},{"bufferView":35,"byteOffset":0,"count":36,"componentType":5125,"type":"SCALAR"},{"bufferView":36,"byteOffset":0,"count":144,"componentType":5126,"type":"VEC3","min":[-0.21227270364761353,0.026060573756694794,-0.0016050292178988457],"max":[-0.11772719770669937,0.12060598284006119,0.022031320258975029]},{"bufferView":37,"byteOffset":0,"count":864,"componentType":5125,"type":"SCALAR"},{"bufferView":38,"byteOffset":0,"count":8,"componentType":5126,"type":"VEC3","min":[-0.11999980360269547,-0.091666705906391144,-0.017968429252505302],"max":[-0.07999979704618454,-0.051666643470525742,0.012031781487166882]},{"bufferView":39,"byteOffset":0,"count":36,"componentType":5125,"type":"SCALAR"},{"bufferView":40,"byteOffset":0,"count":144,"componentType":5126,"type":"VEC3","min":[-0.21227259933948517,-0.1239393875002861,-0.00040532491402700543],"max":[-0.11772710084915161,-0.029393957927823067,0.02323102205991745]},{"bufferView":41,"byteOffset":0,"count":864,"componentType":5125,"type":"SCALAR"}],"bufferViews":[{"buffer":0,"byteOffset":0,"byteLength":240,"byteStride":12,"target":34962},{"buffer":0,"byteOffset":240,"byteLength":288,"target":34963},{"buffer":0,"byteOffset":528,"byteLength":288,"byteStride":12,"target":34962},{"buffer":0,"byteOffset":816,"byteLength":528,"target":34963},{"buffer":0,"byteOffset":1344,"byteLength":96,"byteStride":12,"target":34962},{"buffer":0,"byteOffset":1440,"byteLength":144,"target":34963},{"buffer":0,"byteOffset":1584,"byteLength":288,"byteStride":12,"target":34962},{"buffer":0,"byteOffset":1872,"byteLength":528,"target":34963},{"buffer":0,"byteOffset":2400,"byteLength":96,"byteStride":12,"target":34962},{"buffer":0,"byteOffset":2496,"byteLength":144,"target":34963},{"buffer":0,"byteOffset":2640,"byteLength":288,"byteStride":12,"target":34962},{"buffer":0,"byteOffset":2928,"byteLength":528,"target":34963},{"buffer":0,"byteOffset":3456,"byteLength":288,"byteStride":12,"target":34962},{"buffer":0,"byteOffset":3744,"byteLength":528,"target":34963},{"buffer":0,"byteOffset":4272,"byteLength":2016,"byteStride":12,"target":34962},{"buffer":0,"byteOffset":6288,"byteLength":3456,"target":34963},{"buffer":0,"byteOffset":9744,"byteLength":2016,"byteStride":12,"target":34962},{"buffer":0,"byteOffset":11760,"byteLength":3456,"target":34963},{"buffer":0,"byteOffset":15216,"byteLength":2016,"byteStride":12,"target":34962},{"buffer":0,"byteOffset":17232,"byteLength":3456,"target":34963},{"buffer":0,"byteOffset":20688,"byteLength":2016,"byteStride":12,"target":34962},{"buffer":0,"byteOffset":22704,"byteLength":3456,"target":34963},{"buffer":0,"byteOffset":26160,"byteLength":288,"byteStride":12,"target":34962},{"buffer":0,"byteOffset":26448,"byteLength":528,"target":34963},{"buffer":0,"byteOffset":26976,"byteLength":636,"byteStride":12,"target":34962},{"buffer":0,"byteOffset":27612,"byteLength":840,"target":34963},{"buffer":0,"byteOffset":28452,"byteLength":96,"byteStride":12,"target":34962},{"buffer":0,"byteOffset":28548,"byteLength":144,"target":34963},{"buffer":0,"byteOffset":28692,"byteLength":1728,"byteStride":12,"target":34962},{"buffer":0,"byteOffset":30420,"byteLength":3456,"target":34963},{"buffer":0,"byteOffset":33876,"byteLength":96,"byteStride":12,"target":34962},{"buffer":0,"byteOffset":33972,"byteLength":144,"target":34963},{"buffer":0,"byteOffset":34116,"byteLength":1728,"byteStride":12,"target":34962},{"buffer":0,"byteOffset":35844,"byteLength":3456,"target":34963},{"buffer":0,"byteOffset":39300,"byteLength":96,"byteStride":12,"target":34962},{"buffer":0,"byteOffset":39396,"byteLength":144,"target":34963},{"buffer":0,"byteOffset":39540,"byteLength":1728,"byteStride":12,"target":34962},{"buffer":0,"byteOffset":41268,"byteLength":3456,"target":34963},{"buffer":0,"byteOffset":44724,"byteLength":96,"byteStride":12,"target":34962},{"buffer":0,"byteOffset":44820,"byteLength":144,"target":34963},{"buffer":0,"byteOffset":44964,"byteLength":1728,"byteStride":12,"target":34962},{"buffer":0,"byteOffset":46692,"byteLength":3456,"target":34963}],"buffers":[{"byteLength":50148,"uri":"Little Drone.bin"}]}